# xmcd CD database file
#
# Track frame offsets:
#	150
#	13617
#	25602
#	39281
#	54269
#	68917
#	84255
#	99039
#	111100
#	126240
#	140406
#	155260
#	170316
#	184577
#	197172
#
# Disc length: 2826 seconds
#
# Revision: 0
# Processed by: cddbd v1.5.2PL0 Copyright (c) Steve Scherf et al.
# Submitted via: CDex 1.79
#
DISCID=ae0b080f
DTITLE=Simply Crooners - CD#2
DYEAR=2009
DGENRE=Jazz
TTITLE0=Franck Sintra - Begin The Beguine
TTITLE1=Nat King Cole with The Billy May Orchestra - Walkin' My Baby Back Home
TTITLE2=Chrales Trenet - All Of A Sudden My Heart Sings
TTITLE3=Tony Martin - Forever Amber
TTITLE4=Perry Como - My Heart Stood Still
TTITLE5=Al Bowly - Goodnight Sweetheart
TTITLE6=Billy Eckstine - Everything I Have Is Yours
TTITLE7=Dick haymes - -Slowly
TTITLE8=Russ Colombo - You're My Everything
TTITLE9=Bing Crosby - You've Got My Crying Again
TTITLE10=Dean Martin - Just One More Chance
TTITLE11=Vic Damone - Sugar
TTITLE12=Perry Como - I'm Always Chasing Rainbows
TTITLE13=Bing crosby - Be careful, It's My Heart
TTITLE14=Nick Lucas - The Song I Love
EXTD=YEAR: 2009
EXTT0=
EXTT1=
EXTT2=
EXTT3=
EXTT4=
EXTT5=
EXTT6=
EXTT7=
EXTT8=
EXTT9=
EXTT10=
EXTT11=
EXTT12=
EXTT13=
EXTT14=
PLAYORDER=
